<svg width="21" height="17" viewBox="0 0 21 17" fill="none" xmlns="http://www.w3.org/2000/svg">
<path d="M17.55 0C18.412 0 19.2386 0.34241 19.8481 0.951903C20.4576 1.5614 20.8 2.38805 20.8 3.25V13.65C20.8 14.512 20.4576 15.3386 19.8481 15.9481C19.2386 16.5576 18.412 16.9 17.55 16.9H3.25C2.38805 16.9 1.5614 16.5576 0.951903 15.9481C0.34241 15.3386 0 14.512 0 13.65V3.25C0 2.38805 0.34241 1.5614 0.951903 0.951903C1.5614 0.34241 2.38805 0 3.25 0H17.55ZM19.5 5.1493L10.7302 10.3103C10.6473 10.359 10.5546 10.3887 10.4588 10.3972C10.3631 10.4057 10.2666 10.3929 10.1764 10.3597L10.0698 10.3103L1.3 5.1519V13.65C1.3 14.1672 1.50545 14.6632 1.87114 15.0289C2.23684 15.3946 2.73283 15.6 3.25 15.6H17.55C18.0672 15.6 18.5632 15.3946 18.9289 15.0289C19.2946 14.6632 19.5 14.1672 19.5 13.65V5.1493ZM17.55 1.3H3.25C2.73283 1.3 2.23684 1.50545 1.87114 1.87114C1.50545 2.23684 1.3 2.73283 1.3 3.25V3.6426L10.4 8.996L19.5 3.64V3.25C19.5 2.73283 19.2946 2.23684 18.9289 1.87114C18.5632 1.50545 18.0672 1.3 17.55 1.3Z" fill="url(#paint0_linear_77_691)"/>
<defs>
<linearGradient id="paint0_linear_77_691" x1="0.39196" y1="8.27021" x2="20.8" y2="8.27021" gradientUnits="userSpaceOnUse">
<stop stop-color="#C1AD64"/>
<stop offset="0.34375" stop-color="#A98343"/>
<stop offset="0.536458" stop-color="#A27C3D"/>
<stop offset="0.875" stop-color="#C4B067"/>
</linearGradient>
</defs>
</svg>
