<svg width="28" height="19" viewBox="0 0 28 19" fill="none" xmlns="http://www.w3.org/2000/svg">
<path d="M0 2.61391C0 1.65828 0.534914 1.143 1.60474 1.06805L5.72727 1.09615C6.00395 1.09615 6.18841 1.23669 6.28063 1.51775C6.70487 2.92308 7.17984 4.13634 7.70553 5.15754C8.23123 6.17875 8.91831 7.35454 9.7668 8.68491C9.84058 8.85355 9.96047 8.93787 10.1265 8.93787C10.2556 8.93787 10.357 8.87229 10.4308 8.74112L10.5138 8.43195L10.5415 3.56953C10.5415 3.23225 10.4631 3.0074 10.3063 2.89497C10.1495 2.78254 9.85903 2.69822 9.43478 2.64201C9.10277 2.5858 8.93676 2.37968 8.93676 2.02367C8.93676 1.94872 8.94598 1.8925 8.96443 1.85503C9.35178 0.637081 10.4585 0.0281065 12.2846 0.0281065L13.834 0C14.5349 0 15.1159 0.178008 15.5771 0.534024C16.0382 0.890039 16.2688 1.45217 16.2688 2.22041V8.60059C16.3979 8.69428 16.5178 8.74112 16.6285 8.74112C16.9051 8.74112 17.1449 8.57248 17.3478 8.23521C19.3768 5.34961 20.4743 3.41963 20.6403 2.44527C20.6403 2.42653 20.6588 2.37968 20.6957 2.30473C20.8248 2.02367 21.0369 1.78008 21.332 1.57396C21.6271 1.36785 21.8854 1.22732 22.1067 1.15237C22.1805 1.11489 22.2635 1.09615 22.3557 1.09615H26.6443L26.9209 1.12426C27.2899 1.12426 27.5758 1.30227 27.7787 1.65828C27.8524 1.77071 27.9032 1.8925 27.9308 2.02367C27.9585 2.15483 27.9769 2.286 27.9862 2.41716C27.9954 2.54832 28 2.62327 28 2.64201V2.83876C27.8709 3.607 27.5435 4.42677 27.0178 5.29808C26.4921 6.16938 25.8235 7.11095 25.0119 8.12278C24.2003 9.13461 23.693 9.7998 23.4901 10.1183C23.3241 10.3432 23.2411 10.5493 23.2411 10.7367C23.2411 10.8866 23.3149 11.0552 23.4625 11.2426L27.502 16.4142C27.7233 16.714 27.834 17.0419 27.834 17.3979C27.834 17.8289 27.668 18.1849 27.336 18.466C27.004 18.747 26.6074 18.9063 26.1462 18.9438L25.6759 18.9719H21.4704C21.4519 18.9719 21.415 18.9766 21.3597 18.9859C21.3043 18.9953 21.2675 19 21.249 19C20.8432 19 20.4651 18.822 20.1146 18.466C19.9855 18.3161 19.1186 17.2106 17.5138 15.1494C17.4216 15.0182 17.2925 14.8965 17.1265 14.784C17.0527 15.0838 16.9559 15.5148 16.836 16.0769C16.7161 16.6391 16.6285 17.0419 16.5731 17.2855L16.4901 17.7633C16.3057 18.4191 15.9183 18.8126 15.3281 18.9438L14.9407 18.9719H12.2292C10.6983 18.9719 9.17194 18.2599 7.6502 16.8358C6.12846 15.4117 4.75889 13.5708 3.5415 11.3129C2.32411 9.05498 1.18972 6.42702 0.13834 3.42899C0.0461133 3.1854 0 2.91371 0 2.61391ZM16.6285 9.89349C16.2411 9.89349 15.8906 9.78575 15.5771 9.57027C15.2635 9.35478 15.1067 9.05966 15.1067 8.68491V2.22041C15.1067 1.84566 15.0145 1.57865 14.83 1.41938C14.6456 1.26011 14.3228 1.18047 13.8617 1.18047L12.2846 1.23669C11.4914 1.23669 10.892 1.37722 10.4862 1.65828C11.2978 2.05178 11.7036 2.68886 11.7036 3.56953V8.51627C11.6667 8.98471 11.4822 9.37352 11.1502 9.68269C10.8182 9.99186 10.4493 10.1465 10.0435 10.1465C9.49012 10.1465 9.06588 9.87475 8.77075 9.33136C7.33202 7.12032 6.26219 5.0217 5.56126 3.0355L5.31225 2.30473L1.63241 2.27663C1.39262 2.27663 1.25889 2.29068 1.23123 2.31879C1.20356 2.34689 1.18972 2.42653 1.18972 2.55769C1.18972 2.72633 1.20817 2.90434 1.24506 3.09172L1.82609 4.66568C3.37549 8.73176 5.05863 11.9359 6.87549 14.2781C8.69236 16.6203 10.4769 17.7914 12.2292 17.7914H14.996C15.1067 17.7914 15.1897 17.7586 15.2451 17.693C15.3004 17.6275 15.3465 17.501 15.3834 17.3136L15.4387 17.0325L15.9644 14.5592C16.112 14.2219 16.2411 13.997 16.3518 13.8846C16.5547 13.6785 16.7945 13.5754 17.0711 13.5754C17.5138 13.5754 17.9657 13.8471 18.4269 14.3905L20.7787 17.426C20.9262 17.6696 21.083 17.7914 21.249 17.7914H25.8142C26.3676 17.7914 26.6443 17.6509 26.6443 17.3698C26.6443 17.2761 26.6166 17.1824 26.5613 17.0888L22.5494 12.0015C22.2358 11.608 22.0791 11.1864 22.0791 10.7367C22.0791 10.287 22.2266 9.85602 22.5217 9.44379C22.7615 9.06903 23.2273 8.44601 23.919 7.5747C24.6107 6.7034 25.2148 5.88831 25.7312 5.12944C26.2477 4.37056 26.5889 3.68195 26.7549 3.06361L26.8379 2.69822C26.8195 2.66075 26.8103 2.59985 26.8103 2.51553C26.8103 2.43121 26.8011 2.36095 26.7826 2.30473H22.4387C22.1621 2.41716 21.9407 2.5858 21.7747 2.81065L21.6087 3.34467C21.1476 4.63757 19.9394 6.63314 17.9842 9.33136C17.5968 9.70611 17.1449 9.89349 16.6285 9.89349Z" fill="url(#paint0_linear_77_602)"/>
<defs>
<linearGradient id="paint0_linear_77_602" x1="0.527638" y1="9.29786" x2="28" y2="9.29786" gradientUnits="userSpaceOnUse">
<stop stop-color="#C1AD64"/>
<stop offset="0.34375" stop-color="#A98343"/>
<stop offset="0.536458" stop-color="#A27C3D"/>
<stop offset="0.875" stop-color="#C4B067"/>
</linearGradient>
</defs>
</svg>
