<svg width="21" height="20" viewBox="0 0 21 20" fill="none" xmlns="http://www.w3.org/2000/svg">
<path d="M10.4989 4.99219C9.11922 4.99219 7.79607 5.51996 6.82051 6.45939C5.84494 7.39882 5.29688 8.67296 5.29688 10.0015C5.29688 11.3301 5.84494 12.6042 6.82051 13.5437C7.79607 14.4831 9.11922 15.0109 10.4989 15.0109C11.8785 15.0109 13.2017 14.4831 14.1772 13.5437C15.1528 12.6042 15.7009 11.3301 15.7009 10.0015C15.7009 8.67296 15.1528 7.39882 14.1772 6.45939C13.2017 5.51996 11.8785 4.99219 10.4989 4.99219ZM10.4989 13.2548C9.60258 13.2548 8.74299 12.9119 8.10921 12.3016C7.47543 11.6913 7.11938 10.8635 7.11938 10.0004C7.11938 9.13733 7.47543 8.30958 8.10921 7.69928C8.74299 7.08897 9.60258 6.7461 10.4989 6.7461C11.3952 6.7461 12.2548 7.08897 12.8885 7.69928C13.5223 8.30958 13.8784 9.13733 13.8784 10.0004C13.8784 10.8635 13.5223 11.6913 12.8885 12.3016C12.2548 12.9119 11.3952 13.2548 10.4989 13.2548Z" fill="url(#paint0_linear_2237_2)"/>
<path d="M15.9071 5.97531C16.5769 5.97531 17.1198 5.45246 17.1198 4.80748C17.1198 4.1625 16.5769 3.63965 15.9071 3.63965C15.2373 3.63965 14.6943 4.1625 14.6943 4.80748C14.6943 5.45246 15.2373 5.97531 15.9071 5.97531Z" fill="url(#paint1_linear_2237_2)"/>
<path d="M20.0993 3.62069C19.8389 2.97305 19.4409 2.38492 18.9308 1.89392C18.4208 1.40293 17.8098 1.0199 17.1372 0.769359C16.3501 0.484829 15.5185 0.330979 14.678 0.314359C13.5946 0.268859 13.2515 0.255859 10.5042 0.255859C7.75695 0.255859 7.40483 0.255859 6.33045 0.314359C5.49052 0.330129 4.65955 0.484011 3.87345 0.769359C3.20063 1.01961 2.58956 1.40254 2.07945 1.89356C1.56934 2.38459 1.17146 2.97289 0.911328 3.62069C0.615796 4.37861 0.456394 5.17943 0.439953 5.98886C0.391578 7.03103 0.376953 7.36144 0.376953 10.008C0.376953 12.6535 0.376953 12.9904 0.439953 14.0272C0.456828 14.8375 0.615453 15.637 0.911328 16.3964C1.17219 17.044 1.57046 17.6321 2.08069 18.123C2.59093 18.614 3.2019 18.9971 3.87458 19.2478C4.65919 19.5437 5.4905 19.7086 6.3327 19.7353C7.41608 19.7808 7.7592 19.7949 10.5065 19.7949C13.2537 19.7949 13.6058 19.7949 14.6802 19.7353C15.5207 19.7188 16.3522 19.5653 17.1395 19.2814C17.8119 19.0302 18.4227 18.6469 18.9327 18.1557C19.4427 17.6646 19.8408 17.0765 20.1016 16.4289C20.3975 15.6706 20.5561 14.8711 20.573 14.0608C20.6213 13.0186 20.636 12.6882 20.636 10.0416C20.636 7.39503 20.636 7.05919 20.573 6.02244C20.5599 5.20157 20.3996 4.38904 20.0993 3.62069ZM18.7291 13.947C18.7218 14.5714 18.6035 15.1899 18.3792 15.7757C18.2103 16.197 17.9516 16.5795 17.6199 16.8988C17.2882 17.218 16.8908 17.4668 16.4532 17.6293C15.8516 17.8443 15.2161 17.9582 14.5745 17.9662C13.5057 18.0139 13.2042 18.0258 10.4637 18.0258C7.72095 18.0258 7.44083 18.0258 6.35183 17.9662C5.7105 17.9586 5.07532 17.8447 4.4742 17.6293C4.0351 17.4678 3.63608 17.2194 3.30295 16.9001C2.96983 16.5809 2.71002 16.1978 2.54033 15.7757C2.31921 15.1962 2.20093 14.5849 2.19045 13.9676C2.14208 12.9384 2.13083 12.6481 2.13083 10.0091C2.13083 7.36903 2.13083 7.09928 2.19045 6.04953C2.19772 5.42555 2.31607 4.8074 2.54033 4.22194C2.88345 3.36719 3.58658 2.69444 4.4742 2.36728C5.07562 2.15293 5.71061 2.03899 6.35183 2.03036C7.4217 1.98378 7.72208 1.97078 10.4637 1.97078C13.2053 1.97078 13.4866 1.97078 14.5745 2.03036C15.2162 2.03779 15.8517 2.15177 16.4532 2.36728C16.8907 2.53007 17.2881 2.77916 17.6198 3.09856C17.9515 3.41796 18.2101 3.8006 18.3792 4.22194C18.6003 4.80147 18.7186 5.4127 18.7291 6.03003C18.7775 7.06028 18.7898 7.34953 18.7898 9.98961C18.7898 12.6286 18.7898 12.9124 18.7415 13.9481H18.7291V13.947Z" fill="url(#paint2_linear_2237_2)"/>
<defs>
<linearGradient id="paint0_linear_2237_2" x1="5.49293" y1="9.89493" x2="15.7009" y2="9.89493" gradientUnits="userSpaceOnUse">
<stop stop-color="#C1AD64"/>
<stop offset="0.34375" stop-color="#A98343"/>
<stop offset="0.536458" stop-color="#A27C3D"/>
<stop offset="0.875" stop-color="#C4B067"/>
</linearGradient>
<linearGradient id="paint1_linear_2237_2" x1="14.74" y1="4.78263" x2="17.1198" y2="4.78263" gradientUnits="userSpaceOnUse">
<stop stop-color="#C1AD64"/>
<stop offset="0.34375" stop-color="#A98343"/>
<stop offset="0.536458" stop-color="#A27C3D"/>
<stop offset="0.875" stop-color="#C4B067"/>
</linearGradient>
<linearGradient id="paint2_linear_2237_2" x1="0.758718" y1="9.81749" x2="20.636" y2="9.81749" gradientUnits="userSpaceOnUse">
<stop stop-color="#C1AD64"/>
<stop offset="0.34375" stop-color="#A98343"/>
<stop offset="0.536458" stop-color="#A27C3D"/>
<stop offset="0.875" stop-color="#C4B067"/>
</linearGradient>
</defs>
</svg>
